# xmcd
#
# Track frame offsets:
#  150
#  13115
#  20814
#  33394
#  47606
#  61788
#  77200
#  85030
#  96755
#  106839
#
# Disc length: 1599 seconds
#
# Revision: 0
# Processed by: cddbd v1.5.1PL2 Copyright (c) Steve Scherf et al.
# Submitted via: Collectorz.com_Music_Collector 6.11
#
DISCID=70063d0a
DTITLE=Byrne, Ray - Steel Blue
DYEAR=2002
DGENRE=
TTITLE0=Runaway Train
TTITLE1=Chain Gang
TTITLE2=Like Jesus Crucified
TTITLE3=Going To The Mountains
TTITLE4=Blue River
TTITLE5=Moonshine
TTITLE6=Ship Of Fools
TTITLE7=From Four Till Late
TTITLE8=Travel On
TTITLE9=Steel Blue
EXTD=
EXTT0=
EXTT1=
EXTT2=
EXTT3=
EXTT4=
EXTT5=
EXTT6=
EXTT7=
EXTT8=
EXTT9=
PLAYORDER=
